<svg width="20" height="20" viewBox="0 0 20 20" fill="none" xmlns="http://www.w3.org/2000/svg">
<mask id="mask0_1317_865" style="mask-type:alpha" maskUnits="userSpaceOnUse" x="0" y="0" width="20" height="20">
<rect width="20" height="20" fill="#D9D9D9"/>
</mask>
<g mask="url(#mask0_1317_865)">
<path d="M9.37504 13.9583H10.625V10.6249H13.9584V9.37492H10.625V6.04159H9.37504V9.37492H6.04171V10.6249H9.37504V13.9583ZM10.0015 17.9166C8.9065 17.9166 7.87726 17.7088 6.91379 17.2933C5.95032 16.8777 5.11226 16.3137 4.39962 15.6014C3.68698 14.889 3.12275 14.0513 2.70692 13.0883C2.29122 12.1252 2.08337 11.0962 2.08337 10.0014C2.08337 8.90638 2.29115 7.87714 2.70671 6.91367C3.12226 5.9502 3.68622 5.11214 4.39858 4.3995C5.11094 3.68686 5.94865 3.12263 6.91171 2.70679C7.87476 2.2911 8.90372 2.08325 9.99858 2.08325C11.0936 2.08325 12.1228 2.29103 13.0863 2.70658C14.0498 3.12214 14.8878 3.6861 15.6005 4.39846C16.3131 5.11082 16.8773 5.94853 17.2932 6.91159C17.7089 7.87464 17.9167 8.9036 17.9167 9.99846C17.9167 11.0935 17.7089 12.1227 17.2934 13.0862C16.8778 14.0496 16.3139 14.8877 15.6015 15.6003C14.8891 16.313 14.0514 16.8772 13.0884 17.293C12.1253 17.7087 11.0964 17.9166 10.0015 17.9166ZM10 16.6666C11.8612 16.6666 13.4375 16.0208 14.7292 14.7291C16.0209 13.4374 16.6667 11.861 16.6667 9.99992C16.6667 8.13881 16.0209 6.56242 14.7292 5.27075C13.4375 3.97909 11.8612 3.33325 10 3.33325C8.13893 3.33325 6.56254 3.97909 5.27087 5.27075C3.97921 6.56242 3.33337 8.13881 3.33337 9.99992C3.33337 11.861 3.97921 13.4374 5.27087 14.7291C6.56254 16.0208 8.13893 16.6666 10 16.6666Z" fill="white"/>
</g>
</svg>
