<svg width="24" height="24" viewBox="0 0 24 24" fill="none" xmlns="http://www.w3.org/2000/svg">
<path d="M21.84 2.64V11.76C21.84 12.024 21.624 12.24 21.36 12.24H15.84V11.76C15.84 9.648 14.112 7.92 12 7.92C13.2 7.92 14.16 6.96 14.16 5.76C14.16 4.56 13.2 3.6 12 3.6C10.8 3.6 9.84003 4.56 9.84003 5.76C9.84003 6.96 10.8 7.92 12 7.92C9.88803 7.92 8.16003 9.648 8.16003 11.76V12.24H2.64003C2.37603 12.24 2.16003 12.024 2.16003 11.76V2.64C2.16003 2.376 2.37603 2.16 2.64003 2.16H21.36C21.624 2.16 21.84 2.376 21.84 2.64ZM12 4.56C11.328 4.56 10.8 5.088 10.8 5.76C10.8 6.432 11.328 6.96 12 6.96C12.672 6.96 13.2 6.432 13.2 5.76C13.2 5.088 12.672 4.56 12 4.56ZM12 8.88C10.416 8.88 9.12003 10.176 9.12003 11.76V12.24H14.88V11.76C14.88 10.176 13.584 8.88 12 8.88ZM12.96 16.56C12.96 16.032 12.528 15.6 12 15.6C11.472 15.6 11.04 16.032 11.04 16.56C11.04 17.088 11.472 17.52 12 17.52C12.528 17.52 12.96 17.088 12.96 16.56ZM12 19.44C10.944 19.44 10.08 20.304 10.08 21.36V21.84H13.92V21.36C13.92 20.304 13.056 19.44 12 19.44ZM20.16 16.56C20.16 16.032 19.728 15.6 19.2 15.6C18.672 15.6 18.24 16.032 18.24 16.56C18.24 17.088 18.672 17.52 19.2 17.52C19.728 17.52 20.16 17.088 20.16 16.56ZM19.2 19.44C18.144 19.44 17.28 20.304 17.28 21.36V21.84H21.12V21.36C21.12 20.304 20.256 19.44 19.2 19.44ZM5.76003 16.56C5.76003 16.032 5.32803 15.6 4.80003 15.6C4.27203 15.6 3.84003 16.032 3.84003 16.56C3.84003 17.088 4.27203 17.52 4.80003 17.52C5.32803 17.52 5.76003 17.088 5.76003 16.56ZM4.80003 19.44C3.74403 19.44 2.88003 20.304 2.88003 21.36V21.84H6.72003V21.36C6.72003 20.304 5.85603 19.44 4.80003 19.44Z" fill="#B1B3BE"/>
</svg>
