<svg width="20" height="20" viewBox="0 0 20 20" fill="none" xmlns="http://www.w3.org/2000/svg">
<mask id="mask0_1322_939" style="mask-type:alpha" maskUnits="userSpaceOnUse" x="0" y="0" width="20" height="20">
<rect width="20" height="20" fill="#D9D9D9"/>
</mask>
<g mask="url(#mask0_1322_939)">
<path d="M1.66663 19.9999V17.4999H18.3333V19.9999H1.66663ZM4.99996 13.6778H6.03038L12.947 6.77388L12.4231 6.24201L11.9039 5.73076L4.99996 12.6474V13.6778ZM3.74996 14.9278V12.1153L13.0914 2.7868C13.2121 2.6661 13.3491 2.57478 13.5025 2.51284C13.6557 2.45089 13.8151 2.41992 13.9808 2.41992C14.1466 2.41992 14.3072 2.45089 14.4625 2.51284C14.6177 2.57478 14.76 2.67041 14.8893 2.79971L15.891 3.81409C16.0203 3.93478 16.1138 4.07305 16.1714 4.22888C16.2291 4.38457 16.2579 4.54555 16.2579 4.7118C16.2579 4.86763 16.2286 5.02256 16.1702 5.17659C16.1117 5.33076 16.0186 5.47166 15.891 5.5993L6.56246 14.9278H3.74996ZM12.947 6.77388L12.4231 6.24201L11.9039 5.73076L12.947 6.77388Z" fill="#008000"/>
</g>
</svg>
