<svg width="20" height="20" viewBox="0 0 20 20" fill="none" xmlns="http://www.w3.org/2000/svg">
<mask id="mask0_1299_297" style="mask-type:alpha" maskUnits="userSpaceOnUse" x="0" y="0" width="20" height="20">
<rect width="20" height="20" fill="#D9D9D9"/>
</mask>
<g mask="url(#mask0_1299_297)">
<path d="M9.99998 13.9423C10.1907 13.9423 10.3505 13.8778 10.4796 13.7487C10.6086 13.6197 10.6731 13.4598 10.6731 13.2691C10.6731 13.0785 10.6086 12.9186 10.4796 12.7896C10.3505 12.6607 10.1907 12.5962 9.99998 12.5962C9.80929 12.5962 9.64942 12.6607 9.5204 12.7896C9.39137 12.9186 9.32685 13.0785 9.32685 13.2691C9.32685 13.4598 9.39137 13.6197 9.5204 13.7487C9.64942 13.8778 9.80929 13.9423 9.99998 13.9423ZM9.37498 10.8975H10.625V5.89748H9.37498V10.8975ZM10.0014 17.9166C8.90644 17.9166 7.8772 17.7089 6.91373 17.2933C5.95026 16.8778 5.1122 16.3138 4.39956 15.6014C3.68692 14.8891 3.12269 14.0514 2.70685 13.0883C2.29116 12.1253 2.08331 11.0963 2.08331 10.0014C2.08331 8.90644 2.29109 7.8772 2.70665 6.91373C3.1222 5.95026 3.68616 5.1122 4.39852 4.39956C5.11088 3.68692 5.94859 3.12269 6.91165 2.70685C7.8747 2.29116 8.90366 2.08331 9.99852 2.08331C11.0935 2.08331 12.1228 2.29109 13.0862 2.70665C14.0497 3.1222 14.8878 3.68616 15.6004 4.39852C16.313 5.11088 16.8773 5.94859 17.2931 6.91165C17.7088 7.8747 17.9166 8.90366 17.9166 9.99852C17.9166 11.0935 17.7089 12.1228 17.2933 13.0862C16.8778 14.0497 16.3138 14.8878 15.6014 15.6004C14.8891 16.313 14.0514 16.8773 13.0883 17.2931C12.1253 17.7088 11.0963 17.9166 10.0014 17.9166ZM9.99998 16.6666C11.8611 16.6666 13.4375 16.0208 14.7291 14.7291C16.0208 13.4375 16.6666 11.8611 16.6666 9.99998C16.6666 8.13887 16.0208 6.56248 14.7291 5.27081C13.4375 3.97915 11.8611 3.33331 9.99998 3.33331C8.13887 3.33331 6.56248 3.97915 5.27081 5.27081C3.97915 6.56248 3.33331 8.13887 3.33331 9.99998C3.33331 11.8611 3.97915 13.4375 5.27081 14.7291C6.56248 16.0208 8.13887 16.6666 9.99998 16.6666Z" fill="#D83A3A"/>
</g>
</svg>
