<svg width="40" height="40" viewBox="0 0 40 40" fill="none" xmlns="http://www.w3.org/2000/svg">
<mask id="mask0_1366_636" style="mask-type:alpha" maskUnits="userSpaceOnUse" x="0" y="0" width="40" height="40">
<rect width="40" height="40" fill="#D9D9D9"/>
</mask>
<g mask="url(#mask0_1366_636)">
<path d="M3.10938 34.1667L20.0002 5L36.891 34.1667H3.10938ZM7.41688 31.6667H32.5835L20.0002 10L7.41688 31.6667ZM20.0002 29.6796C20.3816 29.6796 20.7013 29.5506 20.9594 29.2925C21.2174 29.0344 21.3465 28.7147 21.3465 28.3333C21.3465 27.9519 21.2174 27.6322 20.9594 27.3742C20.7013 27.1161 20.3816 26.9871 20.0002 26.9871C19.6188 26.9871 19.2991 27.1161 19.041 27.3742C18.783 27.6322 18.654 27.9519 18.654 28.3333C18.654 28.7147 18.783 29.0344 19.041 29.2925C19.2991 29.5506 19.6188 29.6796 20.0002 29.6796ZM18.7502 25.3204H21.2502V16.9871H18.7502V25.3204Z" fill="#212A4B"/>
</g>
</svg>
