<svg width="20" height="20" viewBox="0 0 20 20" fill="none" xmlns="http://www.w3.org/2000/svg">
<mask id="mask0_1325_1896" style="mask-type:alpha" maskUnits="userSpaceOnUse" x="0" y="0" width="20" height="20">
<rect width="20" height="20" fill="#D9D9D9"/>
</mask>
<g mask="url(#mask0_1325_1896)">
<path d="M17.0832 6.00967V15.577C17.0832 15.9979 16.9373 16.3542 16.6457 16.6459C16.354 16.9376 15.9977 17.0834 15.5767 17.0834H4.42296C4.00199 17.0834 3.64567 16.9376 3.354 16.6459C3.06234 16.3542 2.9165 15.9979 2.9165 15.577V4.42321C2.9165 4.00223 3.06234 3.64591 3.354 3.35425C3.64567 3.06258 4.00199 2.91675 4.42296 2.91675H13.9903L17.0832 6.00967ZM15.8332 6.54175L13.4582 4.16675H4.42296C4.3481 4.16675 4.28664 4.19078 4.23859 4.23883C4.19053 4.28689 4.1665 4.34835 4.1665 4.42321V15.577C4.1665 15.6518 4.19053 15.7133 4.23859 15.7613C4.28664 15.8094 4.3481 15.8334 4.42296 15.8334H15.5767C15.6516 15.8334 15.713 15.8094 15.7611 15.7613C15.8091 15.7133 15.8332 15.6518 15.8332 15.577V6.54175ZM9.99984 14.3911C10.5768 14.3911 11.0682 14.1881 11.4742 13.7822C11.8802 13.3762 12.0832 12.8847 12.0832 12.3078C12.0832 11.7308 11.8802 11.2394 11.4742 10.8334C11.0682 10.4274 10.5768 10.2245 9.99984 10.2245C9.42289 10.2245 8.93144 10.4274 8.52546 10.8334C8.11949 11.2394 7.9165 11.7308 7.9165 12.3078C7.9165 12.8847 8.11949 13.3762 8.52546 13.7822C8.93144 14.1881 9.42289 14.3911 9.99984 14.3911ZM5.32046 8.23716H12.1632V5.32071H5.32046V8.23716Z" fill="#D9D9D9"/>
</g>
</svg>
