<svg width="24" height="24" viewBox="0 0 24 24" fill="none" xmlns="http://www.w3.org/2000/svg">
<path d="M12 9C11.2583 9 10.5333 8.78007 9.91661 8.36801C9.29993 7.95596 8.81928 7.37029 8.53545 6.68506C8.25162 5.99984 8.17736 5.24584 8.32205 4.51841C8.46675 3.79098 8.8239 3.1228 9.34835 2.59835C9.8728 2.0739 10.541 1.71675 11.2684 1.57206C11.9958 1.42736 12.7498 1.50162 13.4351 1.78545C14.1203 2.06928 14.706 2.54993 15.118 3.16661C15.5301 3.7833 15.75 4.50832 15.75 5.25C15.75 5.74246 15.653 6.23009 15.4645 6.68506C15.2761 7.14004 14.9999 7.55343 14.6517 7.90165C14.3034 8.24987 13.89 8.52609 13.4351 8.71455C12.9801 8.90301 12.4925 9 12 9ZM12 17.01C12.4856 16.0009 13.191 15.1134 14.0645 14.4126C14.9379 13.7118 15.9572 13.2154 17.0475 12.96H17.085C16.7952 11.8315 16.1383 10.8315 15.2177 10.1175C14.2971 9.40341 13.1651 9.01586 12 9.01586C10.8349 9.01586 9.70294 9.40341 8.78234 10.1175C7.86173 10.8315 7.2048 11.8315 6.915 12.96C8.01213 13.2103 9.03885 13.7044 9.9191 14.4054C10.7993 15.1065 11.5105 15.9967 12 17.01ZM19.9275 16.5C19.3128 16.4998 18.6988 16.5424 18.09 16.6275C14.8875 17.0625 12.435 18.6 12.09 20.4975C12.0434 20.6616 12.0132 20.8299 12 21C12.0011 20.8212 11.9835 20.6427 11.9475 20.4675C11.565 18.57 9.1125 17.0325 5.9475 16.5975C5.32559 16.5207 4.69902 16.4881 4.0725 16.5H1.5V22.5H22.5V16.5H19.9275ZM12.81 17.0775C12.5559 17.5524 12.3595 18.056 12.225 18.5775C13.3575 17.2425 15.42 16.2525 17.985 15.9075C18.6281 15.8102 19.2771 15.7576 19.9275 15.75H21V13.5H18.795C18.2645 13.5009 17.7359 13.5639 17.22 13.6875C16.2897 13.9152 15.4171 14.3342 14.6578 14.9179C13.8985 15.5016 13.2692 16.2371 12.81 17.0775ZM6 15.885C8.565 16.23 10.6275 17.22 11.7675 18.555C11.506 17.5946 11.0393 16.7024 10.3997 15.9398C9.76005 15.1771 8.96267 14.5623 8.0625 14.1375C7.64209 13.9416 7.20214 13.7908 6.75 13.6875C6.24386 13.5662 5.72547 13.5033 5.205 13.5H3V15.75H4.0725C4.71735 15.7503 5.36141 15.7954 6 15.885Z" fill="#B1B3BE"/>
</svg>
