<svg width="24" height="24" viewBox="0 0 24 24" fill="none" xmlns="http://www.w3.org/2000/svg">
<path d="M22.5 4.5H21.75V17.25C21.75 17.5484 21.6315 17.8345 21.4205 18.0455C21.2095 18.2565 20.9234 18.375 20.625 18.375H16.02C15.0305 18.3758 14.0547 18.6069 13.17 19.05L12.5025 19.38C12.347 19.4596 12.1747 19.5008 12 19.5C11.7333 19.4842 11.4751 19.4002 11.25 19.2562C11.1488 19.2 11.0288 19.1363 10.875 19.065H10.8375C9.95276 18.6219 8.97701 18.3908 7.9875 18.39H3.375C3.07663 18.39 2.79048 18.2715 2.5795 18.0605C2.36853 17.8495 2.25 17.5634 2.25 17.265V4.5H1.5C1.40054 4.5 1.30516 4.53951 1.23483 4.60984C1.16451 4.68016 1.125 4.77554 1.125 4.875V19.875C1.125 19.9745 1.16451 20.0698 1.23483 20.1402C1.30516 20.2105 1.40054 20.25 1.5 20.25H22.5C22.5995 20.25 22.6948 20.2105 22.7652 20.1402C22.8355 20.0698 22.875 19.9745 22.875 19.875V4.875C22.875 4.77554 22.8355 4.68016 22.7652 4.60984C22.6948 4.53951 22.5995 4.5 22.5 4.5Z" fill="#212A4B"/>
<path d="M11.5013 3.8325C10.4896 3.32538 9.38086 3.04148 8.25 3V11.625C8.24965 11.6925 8.23107 11.7587 8.19623 11.8166C8.16138 11.8744 8.11156 11.9218 8.05203 11.9537C7.9925 11.9855 7.92546 12.0007 7.858 11.9977C7.79053 11.9946 7.72515 11.9734 7.66875 11.9362L6.75 11.325L5.83125 11.9362C5.77485 11.9734 5.70947 11.9946 5.642 11.9977C5.57454 12.0007 5.5075 11.9855 5.44797 11.9537C5.38844 11.9218 5.33862 11.8744 5.30377 11.8166C5.26893 11.7587 5.25035 11.6925 5.25 11.625V3H3.375C3.27554 3 3.18016 3.03951 3.10984 3.10984C3.03951 3.18016 3 3.27554 3 3.375V17.25C3 17.3495 3.03951 17.4448 3.10984 17.5152C3.18016 17.5855 3.27554 17.625 3.375 17.625H7.98C9.08632 17.6241 10.1776 17.8809 11.1675 18.375C11.3625 18.4575 11.505 18.5362 11.625 18.6V3.8925L11.5013 3.8325ZM20.625 3H16.02C14.7977 3.00207 13.5925 3.28701 12.4988 3.8325L12.375 3.8925V18.6075L12.8325 18.375C13.8224 17.8809 14.9137 17.6241 16.02 17.625H20.625C20.7245 17.625 20.8198 17.5855 20.8902 17.5152C20.9605 17.4448 21 17.3495 21 17.25V3.375C21 3.27554 20.9605 3.18016 20.8902 3.10984C20.8198 3.03951 20.7245 3 20.625 3ZM14.25 9.75H17.2987V10.5H14.25V9.75ZM14.25 12.75H17.2987V13.5H14.25V12.75ZM18.75 15H14.25V14.25H18.75V15ZM18.75 12H14.25V11.25H18.75V12ZM18.75 9H14.25V8.25H18.75V9Z" fill="#212A4B"/>
</svg>
