<svg width="24" height="24" viewBox="0 0 24 24" fill="none" xmlns="http://www.w3.org/2000/svg">
<path d="M8.97932 6.15106C8.6542 4.82633 8.7532 3.42567 10.2311 2.96479C10.726 2.81044 10.5581 2.87307 10.944 2.56234C11.2819 2.29021 11.7281 2.1289 12.1585 2.10254C13.3236 2.03155 14.6506 3.1024 15.0696 4.12017C15.3294 4.75118 15.366 5.51438 15.0987 6.14982C15.8771 6.16576 15.4234 7.29477 15.2102 7.66542C14.9482 8.12082 15.0161 7.82712 14.9051 8.40769C14.6656 9.66049 13.7408 10.954 12.5788 11.48C12.7744 11.7537 13.0557 12.1356 13.173 12.4484C13.072 12.8776 12.7745 13.201 12.6592 13.5695C12.5943 13.7771 12.8864 15.0712 12.9074 15.434C13.3914 14.4235 13.8765 13.327 14.2846 12.2897C14.4694 11.8203 14.59 11.2367 15.2291 11.4707C15.578 11.5985 15.9123 11.7813 16.2511 11.934L17.3848 12.4533C18.8426 13.1336 18.9756 13.5722 19.1783 15.0448L19.6106 18.0689C19.6605 18.4259 19.7311 18.7951 19.7454 19.1552C19.77 19.7717 19.0222 19.6412 18.6278 19.6412L17.1883 19.6408C15.4133 19.6406 13.6358 19.6216 11.8612 19.6436C11.2824 19.6349 10.7028 19.6409 10.124 19.6408L5.73883 19.6413C5.51316 19.6413 4.78892 19.6728 4.60986 19.6037C4.16807 19.4333 4.34117 18.8895 4.38853 18.5367L4.8529 15.2885C5.11176 13.461 5.13081 13.1824 6.92421 12.3418C7.53403 12.0559 8.14472 11.7717 8.75946 11.4965C9.38605 11.2161 9.51411 11.6162 9.72276 12.1232C10.1852 13.2471 10.7069 14.3451 11.1878 15.461C11.2585 14.92 11.4176 14.2613 11.4475 13.7388C11.4623 13.4811 11.0168 12.7997 10.9114 12.4613L10.9063 12.4446C10.9702 12.1839 11.3017 11.7021 11.481 11.4985C10.3324 10.9953 9.32492 9.49864 9.12403 8.31282C9.04198 7.82843 9.05762 8.04252 8.85418 7.67731C8.71821 7.43322 8.34471 6.50434 8.58921 6.24769C8.68645 6.14562 8.84961 6.15372 8.97932 6.15106Z" fill="#B1B3BE"/>
</svg>
