<svg width="24" height="24" viewBox="0 0 24 24" fill="none" xmlns="http://www.w3.org/2000/svg">
<path d="M8.97932 6.1511C8.6542 4.82638 8.7532 3.42572 10.2311 2.96483C10.726 2.81048 10.5581 2.87312 10.944 2.56239C11.2819 2.29026 11.7281 2.12895 12.1585 2.10259C13.3236 2.0316 14.6506 3.10245 15.0696 4.12021C15.3294 4.75123 15.366 5.51443 15.0987 6.14986C15.8771 6.1658 15.4234 7.29481 15.2102 7.66546C14.9482 8.12086 15.0161 7.82716 14.9051 8.40774C14.6656 9.66054 13.7408 10.9541 12.5788 11.4801C12.7744 11.7537 13.0557 12.1356 13.173 12.4484C13.072 12.8776 12.7745 13.2011 12.6592 13.5695C12.5943 13.7771 12.8864 15.0712 12.9074 15.4341C13.3914 14.4235 13.8765 13.327 14.2846 12.2898C14.4694 11.8203 14.59 11.2367 15.2291 11.4707C15.578 11.5985 15.9123 11.7814 16.2511 11.934L17.3848 12.4534C18.8426 13.1336 18.9756 13.5722 19.1783 15.0449L19.6106 18.0689C19.6605 18.4259 19.7311 18.7951 19.7454 19.1553C19.77 19.7717 19.0222 19.6413 18.6278 19.6412L17.1883 19.6408C15.4133 19.6407 13.6358 19.6216 11.8612 19.6436C11.2824 19.6349 10.7028 19.6409 10.124 19.6409L5.73883 19.6413C5.51316 19.6414 4.78892 19.6728 4.60986 19.6038C4.16807 19.4334 4.34117 18.8896 4.38853 18.5368L4.8529 15.2886C5.11176 13.461 5.13081 13.1824 6.92421 12.3418C7.53403 12.056 8.14472 11.7718 8.75946 11.4966C9.38605 11.2162 9.51411 11.6162 9.72276 12.1232C10.1852 13.2471 10.7069 14.3452 11.1878 15.461C11.2585 14.9201 11.4176 14.2613 11.4475 13.7389C11.4623 13.4812 11.0168 12.7998 10.9114 12.4614L10.9063 12.4446C10.9702 12.184 11.3017 11.7022 11.481 11.4985C10.3324 10.9954 9.32492 9.49869 9.12403 8.31286C9.04198 7.82848 9.05762 8.04256 8.85418 7.67735C8.71821 7.43326 8.34471 6.50439 8.58921 6.24774C8.68645 6.14566 8.84961 6.15376 8.97932 6.1511Z" fill="#212A4B"/>
</svg>
