<svg width="40" height="40" viewBox="0 0 40 40" fill="none" xmlns="http://www.w3.org/2000/svg">
<mask id="mask0_1323_1626" style="mask-type:alpha" maskUnits="userSpaceOnUse" x="0" y="0" width="40" height="40">
<rect width="40" height="40" fill="#D9D9D9"/>
</mask>
<g mask="url(#mask0_1323_1626)">
<path d="M10.8333 32.5C8.53 32.5 6.56528 31.701 4.93917 30.1029C3.31306 28.5049 2.5 26.5518 2.5 24.2437C2.5 22.1732 3.16611 20.3521 4.49833 18.7804C5.83056 17.2088 7.48278 16.2776 9.455 15.9871C9.98917 13.4957 11.2419 11.4583 13.2133 9.875C15.1844 8.29167 17.4467 7.5 20 7.5C23.0178 7.5 25.5778 8.55111 27.68 10.6533C29.7822 12.7556 30.8333 15.3156 30.8333 18.3333V19.1667H31.3463C33.1026 19.3033 34.5674 20.0096 35.7404 21.2854C36.9135 22.561 37.5 24.0769 37.5 25.8333C37.5 27.6922 36.859 29.2681 35.5771 30.5608C34.2949 31.8536 32.7243 32.5 30.8654 32.5H21.7629C20.921 32.5 20.2083 32.2083 19.625 31.625C19.0417 31.0417 18.75 30.329 18.75 29.4871V20.3587L15.6667 23.3908L13.9104 21.6508L20 15.5608L26.0896 21.6508L24.3333 23.3908L21.25 20.3587V29.4871C21.25 29.6154 21.3035 29.7329 21.4104 29.8396C21.5171 29.9465 21.6346 30 21.7629 30H30.8333C32 30 32.9861 29.5972 33.7917 28.7917C34.5972 27.9861 35 27 35 25.8333C35 24.6667 34.5972 23.6806 33.7917 22.875C32.9861 22.0694 32 21.6667 30.8333 21.6667H28.3333V18.3333C28.3333 16.0278 27.5208 14.0625 25.8958 12.4375C24.2708 10.8125 22.3056 10 20 10C17.6944 10 15.7292 10.8125 14.1042 12.4375C12.4792 14.0625 11.6667 16.0278 11.6667 18.3333H10.8013C9.22208 18.3333 7.86042 18.9028 6.71625 20.0417C5.57208 21.1806 5 22.5556 5 24.1667C5 25.7778 5.56944 27.1528 6.70833 28.2917C7.84722 29.4306 9.22222 30 10.8333 30H15V32.5H10.8333Z" fill="#212A4B"/>
</g>
</svg>
