<svg width="20" height="20" viewBox="0 0 20 20" fill="none" xmlns="http://www.w3.org/2000/svg">
<mask id="mask0_1322_923" style="mask-type:alpha" maskUnits="userSpaceOnUse" x="0" y="0" width="20" height="20">
<rect width="20" height="20" fill="#D9D9D9"/>
</mask>
<g mask="url(#mask0_1322_923)">
<path d="M10.0019 12.9808C10.9462 12.9808 11.7482 12.6503 12.4079 11.9894C13.0677 11.3284 13.3975 10.5258 13.3975 9.58146C13.3975 8.63715 13.067 7.83514 12.4061 7.17542C11.7451 6.51569 10.9425 6.18583 9.99815 6.18583C9.05384 6.18583 8.25183 6.51632 7.59211 7.17729C6.93238 7.83826 6.60252 8.6409 6.60252 9.58521C6.60252 10.5295 6.93301 11.3315 7.59398 11.9913C8.25495 12.651 9.05759 12.9808 10.0019 12.9808ZM10 11.8333C9.37502 11.8333 8.84377 11.6146 8.40627 11.1771C7.96877 10.7396 7.75002 10.2083 7.75002 9.58333C7.75002 8.95833 7.96877 8.42708 8.40627 7.98958C8.84377 7.55208 9.37502 7.33333 10 7.33333C10.625 7.33333 11.1563 7.55208 11.5938 7.98958C12.0313 8.42708 12.25 8.95833 12.25 9.58333C12.25 10.2083 12.0313 10.7396 11.5938 11.1771C11.1563 11.6146 10.625 11.8333 10 11.8333ZM10.0011 15.4167C8.08481 15.4167 6.33877 14.8881 4.76294 13.8308C3.1871 12.7738 2.02683 11.3579 1.2821 9.58333C2.02683 7.80875 3.18669 6.39292 4.76169 5.33583C6.33683 4.27861 8.08259 3.75 9.99898 3.75C11.9152 3.75 13.6613 4.27861 15.2371 5.33583C16.8129 6.39292 17.9732 7.80875 18.7179 9.58333C17.9732 11.3579 16.8134 12.7738 15.2384 13.8308C13.6632 14.8881 11.9175 15.4167 10.0011 15.4167ZM10 14.1667C11.5695 14.1667 13.0104 13.7535 14.3229 12.9271C15.6354 12.1007 16.6389 10.9861 17.3334 9.58333C16.6389 8.18056 15.6354 7.06597 14.3229 6.23958C13.0104 5.41319 11.5695 5 10 5C8.43058 5 6.9896 5.41319 5.6771 6.23958C4.3646 7.06597 3.36113 8.18056 2.66669 9.58333C3.36113 10.9861 4.3646 12.1007 5.6771 12.9271C6.9896 13.7535 8.43058 14.1667 10 14.1667Z" fill="#0000FF"/>
</g>
</svg>
